<svg width="272" height="87" viewBox="0 0 272 87" fill="none" xmlns="http://www.w3.org/2000/svg">
<path d="M69.4879 62.9917L83.7561 67.7079C81.8255 70.6015 79.5726 73.2822 76.8909 75.6397C74.3159 77.9984 71.5276 80.034 68.416 81.7489C65.4121 83.4638 62.1939 84.7502 58.6535 85.607C55.2209 86.5716 51.6805 87 47.9257 87C36.0181 87 26.0413 82.7122 17.6741 74.352C9.30701 65.993 5.01562 56.0244 5.01562 44.1267C5.01562 32.3355 9.19919 22.2604 17.6741 13.9002C25.9347 5.4323 36.0181 1.2522 47.9257 1.2522C53.8255 1.2522 59.4045 2.32447 64.6612 4.57548C69.8101 6.8265 74.4237 9.93433 78.3929 13.9002L68.0938 23.9753C62.5149 18.401 55.864 15.6151 47.9257 15.6151C40.0951 15.6151 33.3365 18.2945 27.651 23.9753C22.0721 29.5496 19.3904 36.3014 19.3904 44.1267C19.3904 51.9508 22.0721 58.8116 27.651 64.3846C33.2299 69.9589 40.0951 72.6383 47.9257 72.6383C52.2171 72.6383 56.1862 71.7803 59.8332 70.1731C63.4815 68.4582 66.6997 66.1007 69.4879 62.9917Z" fill="white" fill-opacity="0.2"/>
<path d="M64.4723 61.7395L78.7405 66.4557C76.8098 69.3493 74.557 72.03 71.8753 74.3875C69.3002 76.7462 66.512 78.7818 63.4004 80.4967C60.3965 82.2116 57.1783 83.498 53.6379 84.3549C50.2053 85.3194 46.6649 85.7478 42.91 85.7478C31.0025 85.7478 21.0256 81.46 12.6585 73.0998C4.29138 64.7408 0 54.7722 0 42.8745C0 31.0833 4.18356 21.0082 12.6585 12.648C20.9191 4.1801 31.0025 0 42.91 0C48.8099 0 54.3888 1.07227 59.6456 3.32329C64.7945 5.5743 69.408 8.68213 73.3772 12.648L63.0782 22.7231C57.4992 17.1488 50.8484 14.3629 42.91 14.3629C35.0795 14.3629 28.3209 17.0423 22.6354 22.7231C17.0565 28.2974 14.3748 35.0492 14.3748 42.8745C14.3748 50.6986 17.0565 57.5594 22.6354 63.1324C28.2143 68.7067 35.0795 71.3861 42.91 71.3861C47.2014 71.3861 51.1706 70.5281 54.8176 68.9209C58.4658 67.206 61.6841 64.8485 64.4723 61.7395Z" fill="white"/>
<path d="M83.7592 37.0542H47.9287V51.3094H69.4909L83.7592 37.0542Z" fill="white" fill-opacity="0.2"/>
<path d="M78.7426 35.8008H42.9121V50.056H64.4743L78.7426 35.8008Z" fill="white"/>
<path d="M124.968 45.5278C124.536 45.993 123.855 46.4748 122.925 46.9732C121.994 47.4384 120.914 47.8704 119.685 48.2691C118.489 48.6678 117.259 48.9835 115.997 49.2161C114.734 49.4819 113.538 49.6148 112.408 49.6148C109.418 49.6148 106.726 49.1829 104.334 48.3189C101.941 47.4218 99.8977 46.1924 98.2031 44.6307C96.5085 43.0357 95.2126 41.1583 94.3155 38.9985C93.4183 36.8387 92.9697 34.4795 92.9697 31.921C92.9697 28.565 93.4681 25.6575 94.465 23.1987C95.495 20.7066 96.874 18.6465 98.6019 17.0183C100.363 15.3569 102.373 14.1275 104.633 13.33C106.925 12.5325 109.318 12.1338 111.81 12.1338C114.169 12.1338 116.329 12.3996 118.289 12.9313C120.25 13.4297 121.911 14.061 123.274 14.8252L120.931 21.5539C120.333 21.2216 119.535 20.8893 118.539 20.5571C117.542 20.2248 116.528 19.959 115.498 19.7596C114.468 19.527 113.554 19.4107 112.757 19.4107C110.763 19.4107 109.002 19.6599 107.474 20.1583C105.945 20.6567 104.649 21.4044 103.586 22.4012C102.556 23.398 101.775 24.6441 101.243 26.1393C100.712 27.6014 100.446 29.3126 100.446 31.273C100.446 33.0009 100.745 34.5626 101.343 35.9582C101.941 37.3205 102.772 38.4835 103.835 39.4471C104.932 40.4107 106.211 41.1417 107.673 41.6401C109.168 42.1386 110.813 42.3878 112.607 42.3878C113.637 42.3878 114.584 42.3213 115.448 42.1884C116.312 42.0223 117.043 41.7731 117.641 41.4408V37.0049H111.312V30.027H124.968V45.5278Z" fill="white"/>
<path d="M163.625 49.8117C161.598 49.8117 159.754 49.4129 158.093 48.6155C156.465 47.7848 155.169 46.5221 154.205 44.8275C153.242 43.1329 152.76 40.9731 152.76 38.3481C152.76 35.8892 153.258 33.7626 154.255 31.9683C155.252 30.174 156.564 28.795 158.193 27.8314C159.821 26.8346 161.549 26.3362 163.376 26.3362C165.536 26.3362 167.164 26.7017 168.261 27.4327C169.39 28.1305 170.321 28.9113 171.052 29.7753L170.753 30.6226L171.401 27.4327H177.88V49.2136H170.902V44.4786L171.45 45.9739C171.384 45.9739 171.185 46.1732 170.852 46.572C170.52 46.9375 170.022 47.386 169.357 47.9177C168.726 48.4161 167.928 48.8481 166.965 49.2136C166.034 49.6123 164.921 49.8117 163.625 49.8117ZM165.619 44.1297C166.45 44.1297 167.197 44.0134 167.862 43.7808C168.526 43.515 169.108 43.1495 169.606 42.6843C170.105 42.1859 170.537 41.5712 170.902 40.8401V35.5071C170.636 34.7761 170.238 34.1613 169.706 33.6629C169.174 33.1313 168.543 32.7325 167.812 32.4667C167.081 32.1677 166.267 32.0181 165.37 32.0181C164.373 32.0181 163.443 32.284 162.579 32.8156C161.748 33.314 161.083 34.0118 160.585 34.909C160.087 35.8061 159.837 36.8362 159.837 37.9992C159.837 39.1621 160.103 40.2088 160.635 41.1392C161.166 42.0696 161.864 42.8006 162.728 43.3322C163.625 43.8639 164.589 44.1297 165.619 44.1297Z" fill="white"/>
<path d="M196.1 49.6672L183.041 27.4377H191.315L198.741 42.49L194.455 42.3404L200.884 27.4377H208.66L196.299 49.6672H196.1Z" fill="white"/>
<path d="M213.691 27.4359H220.668V49.2168H213.691V27.4359ZM213.541 19.7104C213.541 18.6803 213.94 17.833 214.737 17.1685C215.568 16.5039 216.448 16.1716 217.379 16.1716C218.309 16.1716 219.157 16.5039 219.921 17.1685C220.718 17.833 221.117 18.6803 221.117 19.7104C221.117 20.7405 220.718 21.5878 219.921 22.2523C219.157 22.8837 218.309 23.1993 217.379 23.1993C216.448 23.1993 215.568 22.8837 214.737 22.2523C213.94 21.5878 213.541 20.7405 213.541 19.7104Z" fill="white"/>
<path d="M230.981 17.8638H237.959V27.3337H243.242V32.7665H237.959V49.2143H230.981V32.7665H227.592V27.3337H230.981V17.8638Z" fill="white"/>
<path d="M251.203 59.6854L265.707 27.4377H271.987L257.931 59.6854H251.203ZM257.034 49.3183L246.368 27.4377H254.193L262.417 45.8294L257.034 49.3183Z" fill="white"/>
<path d="M140.227 39.8515C140.227 36.5485 142.248 35.2567 145.359 35.2567H147.472V27.5227C144.591 27.5227 142.133 28.0079 140.52 30.3508V27.7147H132.992V49.2614H140.227V39.8515Z" fill="white"/>
<path d="M96.5762 76.092V66.796H102.628V67.919H97.799V70.8637H102.378V71.9868H97.799V74.969H102.628V76.092H96.5762Z" fill="white" fill-opacity="0.6"/>
<path d="M104.505 76.092V69.3664H105.641V70.739L105.478 70.5268C105.645 70.1026 105.911 69.7782 106.277 69.5536C106.643 69.329 107.055 69.2167 107.512 69.2167C108.036 69.2167 108.506 69.3622 108.922 69.6534C109.347 69.9445 109.638 70.3272 109.796 70.8014L109.471 70.8138C109.646 70.2898 109.941 69.8946 110.357 69.6284C110.773 69.3539 111.235 69.2167 111.742 69.2167C112.208 69.2167 112.628 69.3248 113.003 69.5411C113.385 69.7574 113.689 70.0568 113.913 70.4395C114.138 70.8222 114.25 71.2547 114.25 71.7372V76.092H113.077V72.1115C113.077 71.7372 113.011 71.4211 112.878 71.1632C112.745 70.9053 112.562 70.7057 112.329 70.5643C112.104 70.4145 111.838 70.3397 111.53 70.3397C111.231 70.3397 110.96 70.4145 110.719 70.5643C110.486 70.7057 110.299 70.9095 110.158 71.1757C110.025 71.4336 109.958 71.7455 109.958 72.1115V76.092H108.785V72.1115C108.785 71.7372 108.718 71.4211 108.585 71.1632C108.452 70.9053 108.269 70.7057 108.036 70.5643C107.812 70.4145 107.546 70.3397 107.238 70.3397C106.938 70.3397 106.668 70.4145 106.427 70.5643C106.194 70.7057 106.007 70.9095 105.865 71.1757C105.732 71.4336 105.666 71.7455 105.666 72.1115V76.092H104.505Z" fill="white" fill-opacity="0.6"/>
<path d="M116.398 78.5875V69.3664H117.533V70.8138L117.383 70.5268C117.633 70.1276 117.974 69.8115 118.407 69.5785C118.839 69.3373 119.334 69.2167 119.891 69.2167C120.524 69.2167 121.089 69.3706 121.588 69.6784C122.096 69.9861 122.495 70.4062 122.786 70.9386C123.077 71.4627 123.223 72.0616 123.223 72.7354C123.223 73.3926 123.077 73.9874 122.786 74.5198C122.495 75.0521 122.096 75.4722 121.588 75.78C121.089 76.0878 120.519 76.2417 119.879 76.2417C119.338 76.2417 118.843 76.1211 118.394 75.8798C117.953 75.6386 117.612 75.2975 117.371 74.8567L117.558 74.657V78.5875H116.398ZM119.792 75.1187C120.216 75.1187 120.594 75.0147 120.927 74.8067C121.26 74.5988 121.518 74.3159 121.701 73.9583C121.892 73.5922 121.988 73.1846 121.988 72.7354C121.988 72.2696 121.892 71.862 121.701 71.5126C121.518 71.1549 121.26 70.8721 120.927 70.6641C120.594 70.4478 120.216 70.3397 119.792 70.3397C119.367 70.3397 118.985 70.4437 118.644 70.6516C118.311 70.8596 118.045 71.1466 117.845 71.5126C117.654 71.8703 117.558 72.2779 117.558 72.7354C117.558 73.1846 117.654 73.5922 117.845 73.9583C118.045 74.3159 118.311 74.5988 118.644 74.8067C118.985 75.0147 119.367 75.1187 119.792 75.1187Z" fill="white" fill-opacity="0.6"/>
<path d="M128.438 76.2417C127.789 76.2417 127.203 76.092 126.679 75.7925C126.155 75.4847 125.739 75.0646 125.431 74.5322C125.123 73.9998 124.969 73.3967 124.969 72.7229C124.969 72.0491 125.119 71.4502 125.418 70.9261C125.726 70.4021 126.142 69.9861 126.666 69.6784C127.19 69.3706 127.781 69.2167 128.438 69.2167C129.087 69.2167 129.673 69.3706 130.197 69.6784C130.721 69.9778 131.133 70.3896 131.433 70.9137C131.74 71.4377 131.894 72.0408 131.894 72.7229C131.894 73.4051 131.736 74.0123 131.42 74.5447C131.104 75.0688 130.684 75.4847 130.16 75.7925C129.644 76.092 129.07 76.2417 128.438 76.2417ZM128.438 75.1187C128.854 75.1187 129.228 75.0147 129.561 74.8067C129.902 74.5988 130.168 74.3118 130.36 73.9458C130.559 73.5798 130.659 73.1721 130.659 72.7229C130.659 72.2654 130.559 71.862 130.36 71.5126C130.168 71.1549 129.902 70.8721 129.561 70.6641C129.228 70.4478 128.854 70.3397 128.438 70.3397C128.014 70.3397 127.631 70.4478 127.29 70.6641C126.957 70.8721 126.691 71.1549 126.491 71.5126C126.292 71.862 126.192 72.2654 126.192 72.7229C126.192 73.1721 126.292 73.5798 126.491 73.9458C126.691 74.3118 126.957 74.5988 127.29 74.8067C127.631 75.0147 128.014 75.1187 128.438 75.1187Z" fill="white" fill-opacity="0.6"/>
<path d="M135.332 76.092L133.024 69.3664H134.309L136.143 74.9939L135.694 74.9814L137.491 69.3664H138.589L140.386 74.9814L139.937 74.9939L141.783 69.3664H143.056L140.748 76.092H139.637L137.865 70.4769H138.215L136.443 76.092H135.332Z" fill="white" fill-opacity="0.6"/>
<path d="M147.566 76.2417C146.917 76.2417 146.339 76.0878 145.831 75.78C145.324 75.4722 144.925 75.0521 144.633 74.5198C144.342 73.979 144.197 73.376 144.197 72.7105C144.197 72.0367 144.338 71.4377 144.621 70.9137C144.912 70.3896 145.303 69.9778 145.794 69.6784C146.293 69.3706 146.85 69.2167 147.466 69.2167C147.965 69.2167 148.406 69.3082 148.789 69.4912C149.18 69.6659 149.508 69.9071 149.774 70.2149C150.049 70.5144 150.257 70.8596 150.398 71.2506C150.548 71.6332 150.623 72.0325 150.623 72.4484C150.623 72.5399 150.614 72.6439 150.598 72.7604C150.59 72.8685 150.577 72.9725 150.56 73.0723H145.045V72.0741H149.887L149.338 72.5233C149.412 72.0907 149.371 71.7039 149.213 71.3629C149.055 71.0218 148.822 70.7514 148.514 70.5518C148.206 70.3522 147.857 70.2523 147.466 70.2523C147.075 70.2523 146.717 70.3522 146.393 70.5518C146.068 70.7514 145.815 71.0384 145.632 71.4128C145.457 71.7788 145.386 72.2155 145.42 72.7229C145.386 73.2137 145.461 73.6463 145.644 74.0206C145.835 74.3867 146.102 74.6736 146.443 74.8816C146.792 75.0813 147.171 75.1811 147.578 75.1811C148.027 75.1811 148.406 75.0771 148.714 74.8691C149.021 74.6612 149.271 74.395 149.462 74.0706L150.436 74.5697C150.303 74.8775 150.095 75.1603 149.812 75.4182C149.537 75.6677 149.209 75.8674 148.826 76.0171C148.452 76.1668 148.032 76.2417 147.566 76.2417Z" fill="white" fill-opacity="0.6"/>
<path d="M152.635 76.092V69.3664H153.77V70.6017L153.646 70.427C153.804 70.0444 154.045 69.7615 154.369 69.5785C154.694 69.3872 155.089 69.2915 155.555 69.2915H155.967V70.3896H155.38C154.906 70.3896 154.523 70.5393 154.232 70.8388C153.941 71.1299 153.795 71.5459 153.795 72.0866V76.092H152.635Z" fill="white" fill-opacity="0.6"/>
<path d="M157.496 76.092V69.3664H158.657V76.092H157.496ZM157.496 68.2933V66.796H158.657V68.2933H157.496Z" fill="white" fill-opacity="0.6"/>
<path d="M160.957 76.092V69.3664H162.092V70.6766L161.905 70.5643C162.071 70.14 162.337 69.8115 162.703 69.5785C163.078 69.3373 163.515 69.2167 164.014 69.2167C164.496 69.2167 164.925 69.3248 165.299 69.5411C165.682 69.7574 165.981 70.0568 166.197 70.4395C166.422 70.8222 166.534 71.2547 166.534 71.7372V76.092H165.361V72.1115C165.361 71.7372 165.295 71.4211 165.162 71.1632C165.029 70.9053 164.837 70.7057 164.588 70.5643C164.346 70.4145 164.068 70.3397 163.752 70.3397C163.436 70.3397 163.153 70.4145 162.903 70.5643C162.662 70.7057 162.471 70.9095 162.329 71.1757C162.188 71.4336 162.117 71.7455 162.117 72.1115V76.092H160.957Z" fill="white" fill-opacity="0.6"/>
<path d="M171.901 78.8371C171.426 78.8371 170.986 78.7622 170.578 78.6125C170.179 78.4627 169.833 78.2548 169.542 77.9886C169.259 77.7307 169.043 77.4271 168.893 77.0777L169.979 76.5786C170.095 76.8947 170.316 77.1609 170.64 77.3772C170.973 77.6018 171.389 77.7141 171.888 77.7141C172.271 77.7141 172.616 77.6392 172.924 77.4895C173.24 77.3481 173.489 77.1318 173.672 76.8406C173.855 76.5578 173.947 76.2126 173.947 75.805V74.2952L174.159 74.5198C173.926 74.9773 173.589 75.3267 173.148 75.5679C172.716 75.8091 172.238 75.9297 171.713 75.9297C171.081 75.9297 170.516 75.7842 170.016 75.493C169.517 75.1936 169.126 74.7901 168.844 74.2827C168.561 73.7669 168.419 73.1971 168.419 72.5732C168.419 71.941 168.561 71.3712 168.844 70.8637C169.126 70.3563 169.513 69.957 170.004 69.6659C170.503 69.3664 171.069 69.2167 171.701 69.2167C172.225 69.2167 172.699 69.3373 173.123 69.5785C173.556 69.8115 173.901 70.1359 174.159 70.5518L173.984 70.8637V69.3664H175.12V75.805C175.12 76.3873 174.983 76.9072 174.708 77.3647C174.434 77.8222 174.051 78.1799 173.56 78.4378C173.078 78.704 172.524 78.8371 171.901 78.8371ZM171.813 74.8067C172.213 74.8067 172.57 74.7069 172.886 74.5073C173.211 74.3076 173.469 74.0414 173.66 73.7087C173.851 73.3676 173.947 72.9891 173.947 72.5732C173.947 72.1656 173.851 71.7913 173.66 71.4502C173.469 71.1091 173.211 70.8388 172.886 70.6391C172.57 70.4395 172.213 70.3397 171.813 70.3397C171.406 70.3397 171.035 70.4395 170.703 70.6391C170.37 70.8388 170.108 71.1091 169.917 71.4502C169.734 71.7829 169.642 72.1573 169.642 72.5732C169.642 72.9891 169.734 73.3676 169.917 73.7087C170.108 74.0414 170.366 74.3076 170.69 74.5073C171.023 74.7069 171.397 74.8067 171.813 74.8067Z" fill="white" fill-opacity="0.6"/>
<path d="M183.131 76.2417C182.499 76.2417 181.929 76.0878 181.422 75.78C180.922 75.4722 180.527 75.0521 180.236 74.5198C179.945 73.9874 179.799 73.3926 179.799 72.7354C179.799 72.0616 179.945 71.4627 180.236 70.9386C180.527 70.4062 180.922 69.9861 181.422 69.6784C181.929 69.3706 182.499 69.2167 183.131 69.2167C183.688 69.2167 184.183 69.3373 184.616 69.5785C185.048 69.8115 185.39 70.1276 185.639 70.5268L185.452 70.8138V66.6462H186.625V76.092H185.489V74.657L185.639 74.8567C185.406 75.2975 185.065 75.6386 184.616 75.8798C184.175 76.1211 183.68 76.2417 183.131 76.2417ZM183.231 75.1187C183.655 75.1187 184.034 75.0147 184.366 74.8067C184.699 74.5988 184.961 74.3159 185.152 73.9583C185.352 73.5922 185.452 73.1846 185.452 72.7354C185.452 72.2779 185.352 71.8703 185.152 71.5126C184.961 71.1466 184.699 70.8596 184.366 70.6516C184.034 70.4437 183.655 70.3397 183.231 70.3397C182.815 70.3397 182.436 70.4478 182.095 70.6641C181.763 70.8721 181.501 71.1549 181.309 71.5126C181.118 71.862 181.022 72.2696 181.022 72.7354C181.022 73.1846 181.118 73.5922 181.309 73.9583C181.501 74.3159 181.763 74.5988 182.095 74.8067C182.428 75.0147 182.807 75.1187 183.231 75.1187Z" fill="white" fill-opacity="0.6"/>
<path d="M188.92 76.092V69.3664H190.08V76.092H188.92ZM188.92 68.2933V66.796H190.08V68.2933H188.92Z" fill="white" fill-opacity="0.6"/>
<path d="M195.587 78.8371C195.113 78.8371 194.672 78.7622 194.264 78.6125C193.865 78.4627 193.52 78.2548 193.229 77.9886C192.946 77.7307 192.73 77.4271 192.58 77.0777L193.665 76.5786C193.782 76.8947 194.002 77.1609 194.327 77.3772C194.66 77.6018 195.075 77.7141 195.575 77.7141C195.957 77.7141 196.302 77.6392 196.61 77.4895C196.926 77.3481 197.176 77.1318 197.359 76.8406C197.542 76.5578 197.633 76.2126 197.633 75.805V74.2952L197.846 74.5198C197.613 74.9773 197.276 75.3267 196.835 75.5679C196.402 75.8091 195.924 75.9297 195.4 75.9297C194.768 75.9297 194.202 75.7842 193.703 75.493C193.204 75.1936 192.813 74.7901 192.53 74.2827C192.247 73.7669 192.106 73.1971 192.106 72.5732C192.106 71.941 192.247 71.3712 192.53 70.8637C192.813 70.3563 193.2 69.957 193.69 69.6659C194.19 69.3664 194.755 69.2167 195.387 69.2167C195.911 69.2167 196.386 69.3373 196.81 69.5785C197.242 69.8115 197.588 70.1359 197.846 70.5518L197.671 70.8637V69.3664H198.806V75.805C198.806 76.3873 198.669 76.9072 198.395 77.3647C198.12 77.8222 197.737 78.1799 197.247 78.4378C196.764 78.704 196.211 78.8371 195.587 78.8371ZM195.5 74.8067C195.899 74.8067 196.257 74.7069 196.573 74.5073C196.897 74.3076 197.155 74.0414 197.346 73.7087C197.538 73.3676 197.633 72.9891 197.633 72.5732C197.633 72.1656 197.538 71.7913 197.346 71.4502C197.155 71.1091 196.897 70.8388 196.573 70.6391C196.257 70.4395 195.899 70.3397 195.5 70.3397C195.092 70.3397 194.722 70.4395 194.389 70.6391C194.056 70.8388 193.794 71.1091 193.603 71.4502C193.42 71.7829 193.329 72.1573 193.329 72.5732C193.329 72.9891 193.42 73.3676 193.603 73.7087C193.794 74.0414 194.052 74.3076 194.377 74.5073C194.709 74.7069 195.084 74.8067 195.5 74.8067Z" fill="white" fill-opacity="0.6"/>
<path d="M201.104 76.092V69.3664H202.265V76.092H201.104ZM201.104 68.2933V66.796H202.265V68.2933H201.104Z" fill="white" fill-opacity="0.6"/>
<path d="M207.297 76.1668C206.64 76.1668 206.133 75.9797 205.775 75.6053C205.426 75.231 205.251 74.7028 205.251 74.0206V70.4769H204.028V69.3664H204.278C204.577 69.3664 204.814 69.2749 204.989 69.0919C205.164 68.9089 205.251 68.6676 205.251 68.3682V67.8192H206.411V69.3664H207.921V70.4769H206.411V73.9832C206.411 74.2078 206.445 74.4033 206.511 74.5697C206.586 74.736 206.707 74.8691 206.873 74.969C207.039 75.0605 207.26 75.1062 207.534 75.1062C207.593 75.1062 207.663 75.1021 207.746 75.0937C207.838 75.0854 207.921 75.0771 207.996 75.0688V76.092C207.888 76.1169 207.767 76.1336 207.634 76.1419C207.501 76.1585 207.389 76.1668 207.297 76.1668Z" fill="white" fill-opacity="0.6"/>
<path d="M211.897 76.2417C211.456 76.2417 211.065 76.1627 210.724 76.0046C210.392 75.8382 210.13 75.6136 209.938 75.3308C209.747 75.0397 209.651 74.7069 209.651 74.3326C209.651 73.9749 209.726 73.6546 209.876 73.3718C210.034 73.0806 210.275 72.8352 210.6 72.6356C210.932 72.436 211.348 72.2945 211.847 72.2114L214.343 71.7996V72.7729L212.109 73.1472C211.677 73.2221 211.361 73.3593 211.161 73.559C210.97 73.7586 210.874 74.004 210.874 74.2952C210.874 74.5697 210.982 74.7984 211.198 74.9814C211.423 75.1644 211.702 75.2559 212.034 75.2559C212.459 75.2559 212.825 75.1686 213.133 74.9939C213.449 74.8109 213.694 74.5655 213.869 74.2577C214.052 73.9499 214.143 73.6089 214.143 73.2345V71.5251C214.143 71.1591 214.006 70.8637 213.731 70.6391C213.465 70.4062 213.112 70.2898 212.671 70.2898C212.288 70.2898 211.947 70.3896 211.648 70.5892C211.356 70.7806 211.14 71.0384 210.999 71.3629L209.988 70.8388C210.113 70.531 210.313 70.2565 210.587 70.0153C210.862 69.7657 211.182 69.5702 211.548 69.4288C211.914 69.2874 212.296 69.2167 212.696 69.2167C213.212 69.2167 213.665 69.3165 214.056 69.5161C214.447 69.7075 214.75 69.9778 214.967 70.3272C215.191 70.6683 215.304 71.0676 215.304 71.5251V76.092H214.168V74.8192L214.38 74.8941C214.239 75.1603 214.048 75.3932 213.806 75.5928C213.565 75.7925 213.282 75.9505 212.958 76.067C212.633 76.1835 212.28 76.2417 211.897 76.2417Z" fill="white" fill-opacity="0.6"/>
<path d="M217.602 76.092V66.6462H218.762V76.092H217.602Z" fill="white" fill-opacity="0.6"/>
<path d="M226.925 78.8371C226.451 78.8371 226.01 78.7622 225.602 78.6125C225.203 78.4627 224.858 78.2548 224.567 77.9886C224.284 77.7307 224.067 77.4271 223.918 77.0777L225.003 76.5786C225.12 76.8947 225.34 77.1609 225.665 77.3772C225.997 77.6018 226.413 77.7141 226.912 77.7141C227.295 77.7141 227.64 77.6392 227.948 77.4895C228.264 77.3481 228.514 77.1318 228.697 76.8406C228.88 76.5578 228.971 76.2126 228.971 75.805V74.2952L229.183 74.5198C228.95 74.9773 228.614 75.3267 228.173 75.5679C227.74 75.8091 227.262 75.9297 226.738 75.9297C226.106 75.9297 225.54 75.7842 225.041 75.493C224.542 75.1936 224.151 74.7901 223.868 74.2827C223.585 73.7669 223.444 73.1971 223.444 72.5732C223.444 71.941 223.585 71.3712 223.868 70.8637C224.151 70.3563 224.537 69.957 225.028 69.6659C225.527 69.3664 226.093 69.2167 226.725 69.2167C227.249 69.2167 227.723 69.3373 228.148 69.5785C228.58 69.8115 228.925 70.1359 229.183 70.5518L229.009 70.8637V69.3664H230.144V75.805C230.144 76.3873 230.007 76.9072 229.732 77.3647C229.458 77.8222 229.075 78.1799 228.584 78.4378C228.102 78.704 227.549 78.8371 226.925 78.8371ZM226.838 74.8067C227.237 74.8067 227.595 74.7069 227.911 74.5073C228.235 74.3076 228.493 74.0414 228.684 73.7087C228.876 73.3676 228.971 72.9891 228.971 72.5732C228.971 72.1656 228.876 71.7913 228.684 71.4502C228.493 71.1091 228.235 70.8388 227.911 70.6391C227.595 70.4395 227.237 70.3397 226.838 70.3397C226.43 70.3397 226.06 70.4395 225.727 70.6391C225.394 70.8388 225.132 71.1091 224.941 71.4502C224.758 71.7829 224.666 72.1573 224.666 72.5732C224.666 72.9891 224.758 73.3676 224.941 73.7087C225.132 74.0414 225.39 74.3076 225.715 74.5073C226.047 74.7069 226.422 74.8067 226.838 74.8067Z" fill="white" fill-opacity="0.6"/>
<path d="M232.442 76.092V69.3664H233.578V70.6017L233.453 70.427C233.611 70.0444 233.852 69.7615 234.177 69.5785C234.501 69.3872 234.896 69.2915 235.362 69.2915H235.774V70.3896H235.187C234.713 70.3896 234.331 70.5393 234.039 70.8388C233.748 71.1299 233.603 71.5459 233.603 72.0866V76.092H232.442Z" fill="white" fill-opacity="0.6"/>
<path d="M239.275 76.2417C238.834 76.2417 238.443 76.1627 238.102 76.0046C237.77 75.8382 237.508 75.6136 237.316 75.3308C237.125 75.0397 237.029 74.7069 237.029 74.3326C237.029 73.9749 237.104 73.6546 237.254 73.3718C237.412 73.0806 237.653 72.8352 237.978 72.6356C238.31 72.436 238.726 72.2945 239.225 72.2114L241.721 71.7996V72.7729L239.487 73.1472C239.055 73.2221 238.739 73.3593 238.539 73.559C238.348 73.7586 238.252 74.004 238.252 74.2952C238.252 74.5697 238.36 74.7984 238.577 74.9814C238.801 75.1644 239.08 75.2559 239.413 75.2559C239.837 75.2559 240.203 75.1686 240.511 74.9939C240.827 74.8109 241.072 74.5655 241.247 74.2577C241.43 73.9499 241.521 73.6089 241.521 73.2345V71.5251C241.521 71.1591 241.384 70.8637 241.11 70.6391C240.843 70.4062 240.49 70.2898 240.049 70.2898C239.666 70.2898 239.325 70.3896 239.026 70.5892C238.735 70.7806 238.518 71.0384 238.377 71.3629L237.366 70.8388C237.491 70.531 237.691 70.2565 237.965 70.0153C238.24 69.7657 238.56 69.5702 238.926 69.4288C239.292 69.2874 239.675 69.2167 240.074 69.2167C240.59 69.2167 241.043 69.3165 241.434 69.5161C241.825 69.7075 242.129 69.9778 242.345 70.3272C242.569 70.6683 242.682 71.0676 242.682 71.5251V76.092H241.546V74.8192L241.758 74.8941C241.617 75.1603 241.426 75.3932 241.184 75.5928C240.943 75.7925 240.66 75.9505 240.336 76.067C240.012 76.1835 239.658 76.2417 239.275 76.2417Z" fill="white" fill-opacity="0.6"/>
<path d="M246.73 76.092L244.097 69.3664H245.395L247.504 75.0563H247.054L249.176 69.3664H250.473L247.828 76.092H246.73Z" fill="white" fill-opacity="0.6"/>
<path d="M252.011 76.092V69.3664H253.171V76.092H252.011ZM252.011 68.2933V66.796H253.171V68.2933H252.011Z" fill="white" fill-opacity="0.6"/>
<path d="M258.203 76.1668C257.546 76.1668 257.039 75.9797 256.681 75.6053C256.332 75.231 256.157 74.7028 256.157 74.0206V70.4769H254.934V69.3664H255.184C255.483 69.3664 255.72 69.2749 255.895 69.0919C256.07 68.9089 256.157 68.6676 256.157 68.3682V67.8192H257.317V69.3664H258.827V70.4769H257.317V73.9832C257.317 74.2078 257.351 74.4033 257.417 74.5697C257.492 74.736 257.613 74.8691 257.779 74.969C257.946 75.0605 258.166 75.1062 258.44 75.1062C258.499 75.1062 258.569 75.1021 258.653 75.0937C258.744 75.0854 258.827 75.0771 258.902 75.0688V76.092C258.794 76.1169 258.673 76.1336 258.54 76.1419C258.407 76.1585 258.295 76.1668 258.203 76.1668Z" fill="white" fill-opacity="0.6"/>
<path d="M261.279 78.8371C261.129 78.8371 260.98 78.8246 260.83 78.7997C260.68 78.783 260.539 78.7456 260.406 78.6873V77.6517C260.497 77.66 260.609 77.6766 260.742 77.7016C260.884 77.7266 261.021 77.739 261.154 77.739C261.545 77.739 261.84 77.6517 262.04 77.477C262.248 77.3023 262.444 77.007 262.627 76.5911L263.051 75.5804L263.026 76.5911L260.156 69.3664H261.416L263.65 75.1062H263.275L265.496 69.3664H266.782L263.75 76.8905C263.608 77.2482 263.425 77.5768 263.201 77.8763C262.984 78.1758 262.718 78.4087 262.402 78.575C262.086 78.7497 261.712 78.8371 261.279 78.8371Z" fill="white" fill-opacity="0.6"/>
</svg>
